/usr/bin/ffmpeg -hide_banner -y -y -r 99 -start_number 0 -start_number_range 1 -i /home/zihad/Projects/Portfolio/assets/tree_bg%04d.png -c:v libx265 -crf 15 -preset veryslow -profile:v main -pix_fmt yuv420p /home/zihad/Projects/Portfolio/assets/tree_bg.mkv
=====================================================
Input #0, image2, from '/home/zihad/Projects/Portfolio/assets/tree_bg%04d.png':
  Duration: 00:00:00.88, start: 0.000000, bitrate: N/A
  Stream #0:0: Video: png, rgba(pc, gbr/unknown/unknown), 1920x1080 [SAR 11811:11811 DAR 16:9], 25 fps, 25 tbr, 25 tbn
Stream mapping:
  Stream #0:0 -> #0:0 (png (native) -> hevc (libx265))
Press [q] to stop, [?] for help
x265 [info]: HEVC encoder version 4.1
x265 [info]: build info [Linux][GCC 14.3.0][64 bit] 8bit
x265 [info]: using cpu capabilities: MMX2 SSE2Fast LZCNT SSSE3 SSE4.2 AVX FMA3 BMI2 AVX2
x265 [info]: Main profile, Level-5 (Main tier)
x265 [info]: Thread pool created using 8 threads
x265 [info]: Slices                              : 1
x265 [info]: frame threads / pool features       : 3 / wpp(17 rows)
x265 [info]: Coding QT: max CU size, min CU size : 64 / 8
x265 [info]: Residual QT: max TU size, max depth : 32 / 3 inter / 3 intra
x265 [info]: ME / range / subpel / merge         : star / 57 / 4 / 5
x265 [info]: Keyframe min / max / scenecut / bias  : 25 / 250 / 40 / 5.00 
x265 [info]: Lookahead / bframes / badapt        : 40 / 8 / 2
x265 [info]: b-pyramid / weightp / weightb       : 1 / 1 / 1
x265 [info]: References / ref-limit  cu / depth  : 5 / off / off
x265 [info]: AQ: mode / str / qg-size / cu-tree  : 2 / 1.0 / 32 / 1
x265 [info]: Rate Control / qCompress            : CRF-15.0 / 0.60
x265 [info]: tools: rect amp rd=6 psy-rd=2.00 rdoq=2 psy-rdoq=1.00 rskip mode=1
x265 [info]: tools: signhide tmvp b-intra strong-intra-smoothing deblock sao
Output #0, matroska, to '/home/zihad/Projects/Portfolio/assets/tree_bg.mkv':
  Metadata:
    encoder         : Lavf61.1.100
  Stream #0:0: Video: hevc, yuv420p(progressive), 1920x1080 [SAR 1:1 DAR 16:9], q=2-31, 99 fps, 1k tbn
      Metadata:
        encoder         : Lavc61.3.100 libx265
      Side data:
        cpb: bitrate max/min/avg: 0/0/0 buffer size: 0 vbv_delay: N/A
frame=    0 fps=0.0 q=0.0 size=       0KiB time=N/A bitrate=N/A speed=N/A    frame=    1 fps=1.0 q=21.5 size=       3KiB time=-00:00:00.01 bitrate=N/A speed=N/A    frame=    4 fps=2.7 q=26.9 size=       3KiB time=00:00:00.02 bitrate=1164.6kbits/s speed=0.0134x    frame=    7 fps=3.5 q=27.0 size=       3KiB time=00:00:00.05 bitrate= 465.9kbits/s speed=0.0252x    frame=    8 fps=3.2 q=22.4 size=       3KiB time=00:00:00.06 bitrate= 388.2kbits/s speed=0.0242x    frame=    9 fps=3.0 q=26.2 size=       3KiB time=00:00:00.07 bitrate= 332.8kbits/s speed=0.0235x    frame=    9 fps=2.6 q=26.2 size=       3KiB time=00:00:00.07 bitrate= 332.8kbits/s speed=0.0202x    frame=   10 fps=2.5 q=19.8 size=       3KiB time=00:00:00.08 bitrate= 291.2kbits/s speed=0.0202x    frame=   12 fps=2.7 q=26.4 size=       3KiB time=00:00:00.10 bitrate= 232.9kbits/s speed=0.0224x    frame=   12 fps=2.4 q=26.4 size=       3KiB time=00:00:00.10 bitrate= 232.9kbits/s speed=0.0202x    frame=   12 fps=2.2 q=26.4 size=       3KiB time=00:00:00.10 bitrate= 232.9kbits/s speed=0.0183x    frame=   12 fps=2.0 q=26.4 size=       3KiB time=00:00:00.10 bitrate= 232.9kbits/s speed=0.0168x    frame=   13 fps=2.0 q=18.4 size=       3KiB time=00:00:00.11 bitrate= 211.8kbits/s speed=0.0171x    frame=   13 fps=1.9 q=18.4 size=       3KiB time=00:00:00.11 bitrate= 211.8kbits/s speed=0.0158x    frame=   13 fps=1.7 q=18.4 size=       3KiB time=00:00:00.11 bitrate= 211.8kbits/s speed=0.0148x    frame=   14 fps=1.7 q=23.1 size=       3KiB time=00:00:00.12 bitrate= 194.1kbits/s speed=0.0151x    frame=   14 fps=1.6 q=23.1 size=       3KiB time=00:00:00.12 bitrate= 194.1kbits/s speed=0.0142x    frame=   14 fps=1.6 q=23.1 size=       3KiB time=00:00:00.12 bitrate= 194.1kbits/s speed=0.0134x    frame=   14 fps=1.5 q=23.1 size=       3KiB time=00:00:00.12 bitrate= 194.1kbits/s speed=0.0127x    frame=   14 fps=1.4 q=23.1 size=       3KiB time=00:00:00.12 bitrate= 194.1kbits/s speed=0.0121x    frame=   15 fps=1.4 q=25.7 size=       3KiB time=00:00:00.13 bitrate= 179.2kbits/s speed=0.0125x    frame=   16 fps=1.5 q=25.2 size=       3KiB time=00:00:00.14 bitrate= 166.4kbits/s speed=0.0128x    frame=   17 fps=1.5 q=23.1 size=       3KiB time=00:00:00.15 bitrate= 155.3kbits/s speed=0.0132x    frame=   17 fps=1.4 q=23.1 size=       3KiB time=00:00:00.15 bitrate= 155.3kbits/s speed=0.0126x    frame=   17 fps=1.4 q=23.1 size=       3KiB time=00:00:00.15 bitrate= 155.3kbits/s speed=0.0121x    frame=   17 fps=1.3 q=23.1 size=       3KiB time=00:00:00.15 bitrate= 155.3kbits/s speed=0.0116x    frame=   18 fps=1.3 q=22.0 size=       3KiB time=00:00:00.16 bitrate= 145.6kbits/s speed=0.012x    frame=   18 fps=1.3 q=22.0 size=       3KiB time=00:00:00.16 bitrate= 145.6kbits/s speed=0.0115x    frame=   18 fps=1.2 q=22.0 size=       3KiB time=00:00:00.16 bitrate= 145.6kbits/s speed=0.0111x    frame=   18 fps=1.2 q=22.0 size=       3KiB time=00:00:00.16 bitrate= 145.6kbits/s speed=0.0108x    frame=   19 fps=1.2 q=25.2 size=       3KiB time=00:00:00.17 bitrate= 137.0kbits/s speed=0.0111x    frame=   20 fps=1.2 q=25.4 size=       3KiB time=00:00:00.18 bitrate= 129.4kbits/s speed=0.0113x    frame=   21 fps=1.3 q=25.6 size=       3KiB time=00:00:00.19 bitrate= 122.6kbits/s speed=0.0116x    frame=   21 fps=1.2 q=25.6 size=       3KiB time=00:00:00.19 bitrate= 122.6kbits/s speed=0.0113x    [out#0/matroska @ 0x564e07b78000] video:219KiB audio:0KiB subtitle:0KiB other streams:0KiB global headers:2KiB muxing overhead: 1.402871%
frame=   22 fps=1.3 q=25.8 Lsize=     222KiB time=00:00:00.20 bitrate=8990.8kbits/s speed=0.0118x    
x265 [info]: frame I:      1, Avg QP:21.47  kb/s: 3244.03 
x265 [info]: frame P:      6, Avg QP:21.28  kb/s: 16825.12
x265 [info]: frame B:     15, Avg QP:25.41  kb/s: 4870.85 
x265 [info]: Weighted P-Frames: Y:0.0% UV:0.0%
x265 [info]: Weighted B-Frames: Y:0.0% UV:0.0%

encoded 22 frames in 16.99s (1.29 fps), 8057.16 kb/s, Avg QP:24.10
